<svg width="78" height="47" viewBox="0 0 78 47" fill="none" xmlns="http://www.w3.org/2000/svg">
<path d="M7.608 1.008H10.68L12.624 6.648L14.592 1.008H17.64L14.712 8.76L16.872 14.184L21.696 0.959999H25.296L18.48 18H15.624L12.624 10.848L9.648 18H6.792L0 0.959999H3.552L8.4 14.184L10.512 8.76L7.608 1.008ZM31.5941 18.24C30.5861 18.24 29.6741 18.072 28.8581 17.736C28.0421 17.384 27.3461 16.912 26.7701 16.32C26.1941 15.712 25.7461 15.024 25.4261 14.256C25.1221 13.472 24.9701 12.648 24.9701 11.784C24.9701 10.584 25.2341 9.488 25.7621 8.496C26.3061 7.504 27.0741 6.712 28.0661 6.12C29.0741 5.512 30.2581 5.208 31.6181 5.208C32.9941 5.208 34.1701 5.512 35.1461 6.12C36.1221 6.712 36.8661 7.504 37.3781 8.496C37.9061 9.472 38.1701 10.528 38.1701 11.664C38.1701 11.856 38.1621 12.056 38.1461 12.264C38.1301 12.456 38.1141 12.616 38.0981 12.744H28.3781C28.4421 13.384 28.6261 13.944 28.9301 14.424C29.2501 14.904 29.6501 15.272 30.1301 15.528C30.6261 15.768 31.1541 15.888 31.7141 15.888C32.3541 15.888 32.9541 15.736 33.5141 15.432C34.0901 15.112 34.4821 14.696 34.6901 14.184L37.4501 14.952C37.1461 15.592 36.7061 16.16 36.1301 16.656C35.5701 17.152 34.9061 17.544 34.1381 17.832C33.3701 18.104 32.5221 18.24 31.5941 18.24ZM28.3061 10.704H34.8821C34.8181 10.064 34.6341 9.512 34.3301 9.048C34.0421 8.568 33.6581 8.2 33.1781 7.944C32.6981 7.672 32.1621 7.536 31.5701 7.536C30.9941 7.536 30.4661 7.672 29.9861 7.944C29.5221 8.2 29.1381 8.568 28.8341 9.048C28.5461 9.512 28.3701 10.064 28.3061 10.704ZM48.0013 18.24C47.0413 18.24 46.1853 18.024 45.4333 17.592C44.6813 17.16 44.0893 16.568 43.6573 15.816V18H40.8493V0.48H44.0653V7.632C44.5133 6.88 45.0973 6.288 45.8173 5.856C46.5533 5.424 47.4093 5.208 48.3853 5.208C49.2013 5.208 49.9453 5.384 50.6173 5.736C51.2893 6.072 51.8653 6.544 52.3453 7.152C52.8413 7.76 53.2173 8.456 53.4733 9.24C53.7453 10.024 53.8813 10.864 53.8813 11.76C53.8813 12.656 53.7293 13.496 53.4253 14.28C53.1373 15.064 52.7293 15.76 52.2013 16.368C51.6733 16.96 51.0493 17.424 50.3293 17.76C49.6253 18.08 48.8493 18.24 48.0013 18.24ZM47.1133 15.504C47.6253 15.504 48.0893 15.408 48.5053 15.216C48.9373 15.008 49.3053 14.736 49.6093 14.4C49.9293 14.064 50.1693 13.672 50.3293 13.224C50.5053 12.76 50.5933 12.28 50.5933 11.784C50.5933 11.096 50.4493 10.464 50.1613 9.888C49.8893 9.296 49.5053 8.824 49.0093 8.472C48.5293 8.12 47.9613 7.944 47.3053 7.944C46.8413 7.944 46.3933 8.056 45.9613 8.28C45.5453 8.488 45.1693 8.776 44.8333 9.144C44.5133 9.512 44.2573 9.928 44.0653 10.392V13.392C44.1613 13.712 44.3133 14 44.5213 14.256C44.7453 14.512 45.0013 14.736 45.2893 14.928C45.5773 15.104 45.8733 15.248 46.1773 15.36C46.4973 15.456 46.8093 15.504 47.1133 15.504Z" fill="#2196F3"/>
<path d="M11.928 33.424C11.816 33.312 11.608 33.16 11.304 32.968C11.016 32.776 10.656 32.592 10.224 32.416C9.808 32.24 9.352 32.088 8.856 31.96C8.36 31.816 7.856 31.744 7.344 31.744C6.448 31.744 5.768 31.912 5.304 32.248C4.856 32.584 4.632 33.056 4.632 33.664C4.632 34.128 4.776 34.496 5.064 34.768C5.352 35.04 5.784 35.272 6.36 35.464C6.936 35.656 7.656 35.864 8.52 36.088C9.64 36.36 10.608 36.696 11.424 37.096C12.256 37.48 12.888 37.992 13.32 38.632C13.768 39.256 13.992 40.088 13.992 41.128C13.992 42.04 13.824 42.824 13.488 43.48C13.152 44.12 12.688 44.64 12.096 45.04C11.504 45.44 10.832 45.736 10.08 45.928C9.328 46.104 8.528 46.192 7.68 46.192C6.832 46.192 5.984 46.104 5.136 45.928C4.288 45.752 3.472 45.504 2.688 45.184C1.904 44.848 1.184 44.448 0.528 43.984L1.992 41.128C2.136 41.272 2.392 41.464 2.76 41.704C3.128 41.928 3.576 42.16 4.104 42.4C4.632 42.624 5.208 42.816 5.832 42.976C6.456 43.136 7.088 43.216 7.728 43.216C8.624 43.216 9.304 43.064 9.768 42.76C10.232 42.456 10.464 42.024 10.464 41.464C10.464 40.952 10.28 40.552 9.912 40.264C9.544 39.976 9.032 39.728 8.376 39.52C7.72 39.296 6.944 39.056 6.048 38.8C4.976 38.496 4.08 38.16 3.36 37.792C2.64 37.408 2.104 36.928 1.752 36.352C1.4 35.776 1.224 35.056 1.224 34.192C1.224 33.024 1.496 32.048 2.04 31.264C2.6 30.464 3.352 29.864 4.296 29.464C5.24 29.048 6.288 28.84 7.44 28.84C8.24 28.84 8.992 28.928 9.696 29.104C10.416 29.28 11.088 29.512 11.712 29.8C12.336 30.088 12.896 30.4 13.392 30.736L11.928 33.424ZM24.1575 45.352C23.8855 45.464 23.5575 45.592 23.1735 45.736C22.7895 45.88 22.3735 45.992 21.9255 46.072C21.4935 46.168 21.0535 46.216 20.6055 46.216C20.0135 46.216 19.4695 46.112 18.9735 45.904C18.4775 45.696 18.0775 45.368 17.7735 44.92C17.4855 44.456 17.3415 43.856 17.3415 43.12V35.896H15.6855V33.424H17.3415V29.344H20.5575V33.424H23.1975V35.896H20.5575V42.04C20.5735 42.472 20.6935 42.784 20.9175 42.976C21.1415 43.168 21.4215 43.264 21.7575 43.264C22.0935 43.264 22.4215 43.208 22.7415 43.096C23.0615 42.984 23.3175 42.888 23.5095 42.808L24.1575 45.352ZM26.4324 41.296V33.424H29.6484V40.6C29.6484 41.56 29.8244 42.288 30.1764 42.784C30.5284 43.264 31.0484 43.504 31.7364 43.504C32.1524 43.504 32.5604 43.424 32.9604 43.264C33.3764 43.088 33.7524 42.832 34.0884 42.496C34.4404 42.16 34.7364 41.736 34.9764 41.224V33.424H38.1924V42.4C38.1924 42.736 38.2484 42.976 38.3604 43.12C38.4884 43.264 38.6884 43.352 38.9604 43.384V46C38.6404 46.048 38.3684 46.08 38.1444 46.096C37.9364 46.128 37.7444 46.144 37.5684 46.144C36.9924 46.144 36.5204 46.016 36.1524 45.76C35.8004 45.488 35.5924 45.12 35.5284 44.656L35.4564 43.648C34.8964 44.496 34.1764 45.144 33.2964 45.592C32.4164 46.024 31.4484 46.24 30.3924 46.24C29.0964 46.24 28.1124 45.824 27.4404 44.992C26.7684 44.144 26.4324 42.912 26.4324 41.296ZM41.3404 39.712C41.3404 38.496 41.5804 37.4 42.0604 36.424C42.5404 35.432 43.2044 34.648 44.0524 34.072C44.9004 33.496 45.8684 33.208 46.9564 33.208C47.8844 33.208 48.7164 33.44 49.4524 33.904C50.2044 34.352 50.7884 34.928 51.2044 35.632V28.48H54.4204V42.4C54.4204 42.736 54.4764 42.976 54.5884 43.12C54.7004 43.264 54.8924 43.352 55.1644 43.384V46C54.6044 46.112 54.1484 46.168 53.7964 46.168C53.2204 46.168 52.7404 46.024 52.3564 45.736C51.9884 45.448 51.7804 45.072 51.7324 44.608L51.6844 43.816C51.2204 44.6 50.5884 45.2 49.7884 45.616C49.0044 46.032 48.1804 46.24 47.3164 46.24C46.4524 46.24 45.6524 46.072 44.9164 45.736C44.1964 45.4 43.5644 44.936 43.0204 44.344C42.4924 43.752 42.0764 43.064 41.7724 42.28C41.4844 41.48 41.3404 40.624 41.3404 39.712ZM51.2044 41.392V38.392C51.0444 37.928 50.7884 37.512 50.4364 37.144C50.0844 36.776 49.6924 36.488 49.2604 36.28C48.8284 36.056 48.3964 35.944 47.9644 35.944C47.4684 35.944 47.0204 36.048 46.6204 36.256C46.2204 36.464 45.8684 36.744 45.5644 37.096C45.2764 37.448 45.0524 37.856 44.8924 38.32C44.7484 38.784 44.6764 39.272 44.6764 39.784C44.6764 40.296 44.7564 40.784 44.9164 41.248C45.0924 41.696 45.3404 42.088 45.6604 42.424C45.9804 42.76 46.3484 43.024 46.7644 43.216C47.1964 43.408 47.6604 43.504 48.1564 43.504C48.4604 43.504 48.7644 43.456 49.0684 43.36C49.3884 43.248 49.6844 43.104 49.9564 42.928C50.2444 42.736 50.4924 42.512 50.7004 42.256C50.9244 41.984 51.0924 41.696 51.2044 41.392ZM58.2971 46V33.424H61.5131V46H58.2971ZM58.2971 31.672V28.48H61.5131V31.672H58.2971ZM70.9423 46.24C69.9183 46.24 68.9983 46.072 68.1823 45.736C67.3663 45.384 66.6703 44.904 66.0943 44.296C65.5343 43.688 65.1023 42.992 64.7983 42.208C64.4943 41.424 64.3423 40.6 64.3423 39.736C64.3423 38.856 64.4943 38.024 64.7983 37.24C65.1023 36.456 65.5343 35.76 66.0943 35.152C66.6703 34.544 67.3663 34.072 68.1823 33.736C68.9983 33.384 69.9183 33.208 70.9423 33.208C71.9663 33.208 72.8783 33.384 73.6783 33.736C74.4943 34.072 75.1903 34.544 75.7663 35.152C76.3423 35.76 76.7743 36.456 77.0623 37.24C77.3663 38.024 77.5183 38.856 77.5183 39.736C77.5183 40.6 77.3663 41.424 77.0623 42.208C76.7743 42.992 76.3423 43.688 75.7663 44.296C75.2063 44.904 74.5183 45.384 73.7023 45.736C72.8863 46.072 71.9663 46.24 70.9423 46.24ZM67.6543 39.736C67.6543 40.472 67.7983 41.128 68.0863 41.704C68.3743 42.264 68.7663 42.704 69.2623 43.024C69.7583 43.344 70.3183 43.504 70.9423 43.504C71.5503 43.504 72.1023 43.344 72.5983 43.024C73.0943 42.688 73.4863 42.24 73.7743 41.68C74.0783 41.104 74.2303 40.448 74.2303 39.712C74.2303 38.992 74.0783 38.344 73.7743 37.768C73.4863 37.192 73.0943 36.744 72.5983 36.424C72.1023 36.104 71.5503 35.944 70.9423 35.944C70.3183 35.944 69.7583 36.112 69.2623 36.448C68.7663 36.768 68.3743 37.216 68.0863 37.792C67.7983 38.352 67.6543 39 67.6543 39.736Z" fill="#212121"/>
</svg>
