<svg width="133" height="19" viewBox="0 0 133 19" fill="none" xmlns="http://www.w3.org/2000/svg">
<path d="M7.608 1.008H10.68L12.624 6.648L14.592 1.008H17.64L14.712 8.76L16.872 14.184L21.696 0.959999H25.296L18.48 18H15.624L12.624 10.848L9.648 18H6.792L0 0.959999H3.552L8.4 14.184L10.512 8.76L7.608 1.008ZM31.5941 18.24C30.5861 18.24 29.6741 18.072 28.8581 17.736C28.0421 17.384 27.3461 16.912 26.7701 16.32C26.1941 15.712 25.7461 15.024 25.4261 14.256C25.1221 13.472 24.9701 12.648 24.9701 11.784C24.9701 10.584 25.2341 9.488 25.7621 8.496C26.3061 7.504 27.0741 6.712 28.0661 6.12C29.0741 5.512 30.2581 5.208 31.6181 5.208C32.9941 5.208 34.1701 5.512 35.1461 6.12C36.1221 6.712 36.8661 7.504 37.3781 8.496C37.9061 9.472 38.1701 10.528 38.1701 11.664C38.1701 11.856 38.1621 12.056 38.1461 12.264C38.1301 12.456 38.1141 12.616 38.0981 12.744H28.3781C28.4421 13.384 28.6261 13.944 28.9301 14.424C29.2501 14.904 29.6501 15.272 30.1301 15.528C30.6261 15.768 31.1541 15.888 31.7141 15.888C32.3541 15.888 32.9541 15.736 33.5141 15.432C34.0901 15.112 34.4821 14.696 34.6901 14.184L37.4501 14.952C37.1461 15.592 36.7061 16.16 36.1301 16.656C35.5701 17.152 34.9061 17.544 34.1381 17.832C33.3701 18.104 32.5221 18.24 31.5941 18.24ZM28.3061 10.704H34.8821C34.8181 10.064 34.6341 9.512 34.3301 9.048C34.0421 8.568 33.6581 8.2 33.1781 7.944C32.6981 7.672 32.1621 7.536 31.5701 7.536C30.9941 7.536 30.4661 7.672 29.9861 7.944C29.5221 8.2 29.1381 8.568 28.8341 9.048C28.5461 9.512 28.3701 10.064 28.3061 10.704ZM48.0013 18.24C47.0413 18.24 46.1853 18.024 45.4333 17.592C44.6813 17.16 44.0893 16.568 43.6573 15.816V18H40.8493V0.48H44.0653V7.632C44.5133 6.88 45.0973 6.288 45.8173 5.856C46.5533 5.424 47.4093 5.208 48.3853 5.208C49.2013 5.208 49.9453 5.384 50.6173 5.736C51.2893 6.072 51.8653 6.544 52.3453 7.152C52.8413 7.76 53.2173 8.456 53.4733 9.24C53.7453 10.024 53.8813 10.864 53.8813 11.76C53.8813 12.656 53.7293 13.496 53.4253 14.28C53.1373 15.064 52.7293 15.76 52.2013 16.368C51.6733 16.96 51.0493 17.424 50.3293 17.76C49.6253 18.08 48.8493 18.24 48.0013 18.24ZM47.1133 15.504C47.6253 15.504 48.0893 15.408 48.5053 15.216C48.9373 15.008 49.3053 14.736 49.6093 14.4C49.9293 14.064 50.1693 13.672 50.3293 13.224C50.5053 12.76 50.5933 12.28 50.5933 11.784C50.5933 11.096 50.4493 10.464 50.1613 9.888C49.8893 9.296 49.5053 8.824 49.0093 8.472C48.5293 8.12 47.9613 7.944 47.3053 7.944C46.8413 7.944 46.3933 8.056 45.9613 8.28C45.5453 8.488 45.1693 8.776 44.8333 9.144C44.5133 9.512 44.2573 9.928 44.0653 10.392V13.392C44.1613 13.712 44.3133 14 44.5213 14.256C44.7453 14.512 45.0013 14.736 45.2893 14.928C45.5773 15.104 45.8733 15.248 46.1773 15.36C46.4973 15.456 46.8093 15.504 47.1133 15.504Z" fill="#2196F3"/>
<path d="M67.2443 5.424C67.1323 5.312 66.9243 5.16 66.6203 4.968C66.3323 4.776 65.9723 4.592 65.5403 4.416C65.1243 4.24 64.6683 4.088 64.1723 3.96C63.6763 3.816 63.1723 3.744 62.6603 3.744C61.7643 3.744 61.0842 3.912 60.6203 4.248C60.1723 4.584 59.9482 5.056 59.9482 5.664C59.9482 6.128 60.0922 6.496 60.3803 6.768C60.6683 7.04 61.1003 7.272 61.6763 7.464C62.2523 7.656 62.9723 7.864 63.8363 8.088C64.9563 8.36 65.9243 8.696 66.7403 9.096C67.5722 9.48 68.2042 9.992 68.6363 10.632C69.0842 11.256 69.3082 12.088 69.3082 13.128C69.3082 14.04 69.1403 14.824 68.8043 15.48C68.4683 16.12 68.0043 16.64 67.4123 17.04C66.8203 17.44 66.1483 17.736 65.3963 17.928C64.6443 18.104 63.8443 18.192 62.9963 18.192C62.1483 18.192 61.3003 18.104 60.4523 17.928C59.6043 17.752 58.7883 17.504 58.0042 17.184C57.2202 16.848 56.5002 16.448 55.8442 15.984L57.3082 13.128C57.4523 13.272 57.7082 13.464 58.0762 13.704C58.4443 13.928 58.8923 14.16 59.4202 14.4C59.9483 14.624 60.5243 14.816 61.1483 14.976C61.7723 15.136 62.4043 15.216 63.0443 15.216C63.9403 15.216 64.6203 15.064 65.0842 14.76C65.5483 14.456 65.7803 14.024 65.7803 13.464C65.7803 12.952 65.5963 12.552 65.2283 12.264C64.8603 11.976 64.3483 11.728 63.6923 11.52C63.0363 11.296 62.2603 11.056 61.3642 10.8C60.2922 10.496 59.3962 10.16 58.6762 9.792C57.9562 9.408 57.4202 8.928 57.0683 8.352C56.7162 7.776 56.5402 7.056 56.5402 6.192C56.5402 5.024 56.8122 4.048 57.3562 3.264C57.9162 2.464 58.6682 1.864 59.6122 1.464C60.5562 1.048 61.6042 0.839999 62.7562 0.839999C63.5563 0.839999 64.3083 0.927999 65.0123 1.104C65.7323 1.28 66.4043 1.512 67.0283 1.8C67.6523 2.088 68.2123 2.4 68.7083 2.736L67.2443 5.424ZM79.4737 17.352C79.2017 17.464 78.8737 17.592 78.4897 17.736C78.1057 17.88 77.6897 17.992 77.2417 18.072C76.8097 18.168 76.3697 18.216 75.9217 18.216C75.3297 18.216 74.7857 18.112 74.2897 17.904C73.7937 17.696 73.3937 17.368 73.0897 16.92C72.8017 16.456 72.6577 15.856 72.6577 15.12V7.896H71.0017V5.424H72.6577V1.344H75.8737V5.424H78.5137V7.896H75.8737V14.04C75.8897 14.472 76.0097 14.784 76.2337 14.976C76.4577 15.168 76.7377 15.264 77.0737 15.264C77.4097 15.264 77.7377 15.208 78.0577 15.096C78.3777 14.984 78.6337 14.888 78.8257 14.808L79.4737 17.352ZM81.7487 13.296V5.424H84.9647V12.6C84.9647 13.56 85.1407 14.288 85.4927 14.784C85.8447 15.264 86.3647 15.504 87.0527 15.504C87.4687 15.504 87.8767 15.424 88.2767 15.264C88.6927 15.088 89.0687 14.832 89.4047 14.496C89.7567 14.16 90.0527 13.736 90.2927 13.224V5.424H93.5087V14.4C93.5087 14.736 93.5647 14.976 93.6767 15.12C93.8047 15.264 94.0047 15.352 94.2767 15.384V18C93.9567 18.048 93.6847 18.08 93.4607 18.096C93.2527 18.128 93.0607 18.144 92.8847 18.144C92.3087 18.144 91.8367 18.016 91.4687 17.76C91.1167 17.488 90.9087 17.12 90.8447 16.656L90.7727 15.648C90.2127 16.496 89.4927 17.144 88.6127 17.592C87.7327 18.024 86.7647 18.24 85.7087 18.24C84.4127 18.24 83.4287 17.824 82.7567 16.992C82.0847 16.144 81.7487 14.912 81.7487 13.296ZM96.6566 11.712C96.6566 10.496 96.8966 9.4 97.3766 8.424C97.8566 7.432 98.5206 6.648 99.3686 6.072C100.217 5.496 101.185 5.208 102.273 5.208C103.201 5.208 104.033 5.44 104.769 5.904C105.521 6.352 106.105 6.928 106.521 7.632V0.48H109.737V14.4C109.737 14.736 109.793 14.976 109.905 15.12C110.017 15.264 110.209 15.352 110.481 15.384V18C109.921 18.112 109.465 18.168 109.113 18.168C108.537 18.168 108.057 18.024 107.673 17.736C107.305 17.448 107.097 17.072 107.049 16.608L107.001 15.816C106.537 16.6 105.905 17.2 105.105 17.616C104.321 18.032 103.497 18.24 102.633 18.24C101.769 18.24 100.969 18.072 100.233 17.736C99.5126 17.4 98.8806 16.936 98.3366 16.344C97.8086 15.752 97.3926 15.064 97.0886 14.28C96.8006 13.48 96.6566 12.624 96.6566 11.712ZM106.521 13.392V10.392C106.361 9.928 106.105 9.512 105.753 9.144C105.401 8.776 105.009 8.488 104.577 8.28C104.145 8.056 103.713 7.944 103.281 7.944C102.785 7.944 102.337 8.048 101.937 8.256C101.537 8.464 101.185 8.744 100.881 9.096C100.593 9.448 100.369 9.856 100.209 10.32C100.065 10.784 99.9926 11.272 99.9926 11.784C99.9926 12.296 100.073 12.784 100.233 13.248C100.409 13.696 100.657 14.088 100.977 14.424C101.297 14.76 101.665 15.024 102.081 15.216C102.513 15.408 102.977 15.504 103.473 15.504C103.777 15.504 104.081 15.456 104.385 15.36C104.705 15.248 105.001 15.104 105.273 14.928C105.561 14.736 105.809 14.512 106.017 14.256C106.241 13.984 106.409 13.696 106.521 13.392ZM113.613 18V5.424H116.829V18H113.613ZM113.613 3.672V0.48H116.829V3.672H113.613ZM126.259 18.24C125.235 18.24 124.315 18.072 123.499 17.736C122.683 17.384 121.987 16.904 121.411 16.296C120.851 15.688 120.419 14.992 120.115 14.208C119.811 13.424 119.659 12.6 119.659 11.736C119.659 10.856 119.811 10.024 120.115 9.24C120.419 8.456 120.851 7.76 121.411 7.152C121.987 6.544 122.683 6.072 123.499 5.736C124.315 5.384 125.235 5.208 126.259 5.208C127.283 5.208 128.195 5.384 128.995 5.736C129.811 6.072 130.507 6.544 131.083 7.152C131.659 7.76 132.091 8.456 132.379 9.24C132.683 10.024 132.835 10.856 132.835 11.736C132.835 12.6 132.683 13.424 132.379 14.208C132.091 14.992 131.659 15.688 131.083 16.296C130.523 16.904 129.835 17.384 129.019 17.736C128.203 18.072 127.283 18.24 126.259 18.24ZM122.971 11.736C122.971 12.472 123.115 13.128 123.403 13.704C123.691 14.264 124.083 14.704 124.579 15.024C125.075 15.344 125.635 15.504 126.259 15.504C126.867 15.504 127.419 15.344 127.915 15.024C128.411 14.688 128.803 14.24 129.091 13.68C129.395 13.104 129.547 12.448 129.547 11.712C129.547 10.992 129.395 10.344 129.091 9.768C128.803 9.192 128.411 8.744 127.915 8.424C127.419 8.104 126.867 7.944 126.259 7.944C125.635 7.944 125.075 8.112 124.579 8.448C124.083 8.768 123.691 9.216 123.403 9.792C123.115 10.352 122.971 11 122.971 11.736Z" fill="#212121"/>
</svg>
